<svg xmlns="http://www.w3.org/2000/svg" xmlns:xlink="http://www.w3.org/1999/xlink" width="307" zoomAndPan="magnify" viewBox="0 0 230.25 129.000003" height="172" preserveAspectRatio="xMidYMid meet" version="1.0"><defs><g/><clipPath id="11cfeb142f"><path d="M 15.085938 1 L 216 1 L 216 127.449219 L 15.085938 127.449219 Z M 15.085938 1 " clip-rule="nonzero"/></clipPath><clipPath id="0dd3d659e0"><path d="M 104 46 L 117 46 L 117 62 L 104 62 Z M 104 46 " clip-rule="nonzero"/></clipPath><clipPath id="534b11c6f0"><path d="M 110.011719 6.667969 L 145.75 37.019531 L 112.503906 76.160156 L 76.769531 45.804688 Z M 110.011719 6.667969 " clip-rule="nonzero"/></clipPath><clipPath id="91d2fd920c"><path d="M 110.011719 6.667969 L 145.75 37.019531 L 112.503906 76.160156 L 76.769531 45.804688 Z M 110.011719 6.667969 " clip-rule="nonzero"/></clipPath><clipPath id="c4cc51329c"><path d="M 110.011719 6.667969 L 145.75 37.019531 L 112.503906 76.160156 L 76.769531 45.804688 Z M 110.011719 6.667969 " clip-rule="nonzero"/></clipPath><clipPath id="d2de781700"><path d="M 93 38 L 107 38 L 107 52 L 93 52 Z M 93 38 " clip-rule="nonzero"/></clipPath><clipPath id="5b816cc950"><path d="M 110.011719 6.667969 L 145.75 37.019531 L 112.503906 76.160156 L 76.769531 45.804688 Z M 110.011719 6.667969 " clip-rule="nonzero"/></clipPath><clipPath id="3e3a011074"><path d="M 110.011719 6.667969 L 145.75 37.019531 L 112.503906 76.160156 L 76.769531 45.804688 Z M 110.011719 6.667969 " clip-rule="nonzero"/></clipPath><clipPath id="d438812887"><path d="M 110.011719 6.667969 L 145.75 37.019531 L 112.503906 76.160156 L 76.769531 45.804688 Z M 110.011719 6.667969 " clip-rule="nonzero"/></clipPath><clipPath id="1070cae51b"><path d="M 124 22 L 138 22 L 138 54 L 124 54 Z M 124 22 " clip-rule="nonzero"/></clipPath><clipPath id="73d5304fdc"><path d="M 110.011719 6.667969 L 145.75 37.019531 L 112.503906 76.160156 L 76.769531 45.804688 Z M 110.011719 6.667969 " clip-rule="nonzero"/></clipPath><clipPath id="423e7c75b3"><path d="M 110.011719 6.667969 L 145.75 37.019531 L 112.503906 76.160156 L 76.769531 45.804688 Z M 110.011719 6.667969 " clip-rule="nonzero"/></clipPath><clipPath id="0f59bc81cb"><path d="M 110.011719 6.667969 L 145.75 37.019531 L 112.503906 76.160156 L 76.769531 45.804688 Z M 110.011719 6.667969 " clip-rule="nonzero"/></clipPath><clipPath id="1b7e9f1881"><path d="M 128.414062 22.304688 L 145.816406 37.089844 L 131.488281 53.957031 L 114.085938 39.175781 Z M 128.414062 22.304688 " clip-rule="nonzero"/></clipPath><clipPath id="004cb65799"><path d="M 128.414062 22.304688 L 145.746094 37.027344 L 131.417969 53.898438 L 114.085938 39.175781 Z M 128.414062 22.304688 " clip-rule="nonzero"/></clipPath><clipPath id="cd81c65e9f"><path d="M 95 14 L 127 14 L 127 28 L 95 28 Z M 95 14 " clip-rule="nonzero"/></clipPath><clipPath id="7bf78598a0"><path d="M 110.011719 6.667969 L 145.75 37.019531 L 112.503906 76.160156 L 76.769531 45.804688 Z M 110.011719 6.667969 " clip-rule="nonzero"/></clipPath><clipPath id="7d45ed2025"><path d="M 110.011719 6.667969 L 145.75 37.019531 L 112.503906 76.160156 L 76.769531 45.804688 Z M 110.011719 6.667969 " clip-rule="nonzero"/></clipPath><clipPath id="259765b873"><path d="M 110.011719 6.667969 L 145.75 37.019531 L 112.503906 76.160156 L 76.769531 45.804688 Z M 110.011719 6.667969 " clip-rule="nonzero"/></clipPath><clipPath id="8d4b9ee6d9"><path d="M 94 47 L 107 47 L 107 62 L 94 62 Z M 94 47 " clip-rule="nonzero"/></clipPath><clipPath id="47d066199f"><path d="M 110.011719 6.667969 L 145.75 37.019531 L 112.503906 76.160156 L 76.769531 45.804688 Z M 110.011719 6.667969 " clip-rule="nonzero"/></clipPath><clipPath id="398c77a208"><path d="M 110.011719 6.667969 L 145.75 37.019531 L 112.503906 76.160156 L 76.769531 45.804688 Z M 110.011719 6.667969 " clip-rule="nonzero"/></clipPath><clipPath id="79d4848fd5"><path d="M 110.011719 6.667969 L 145.75 37.019531 L 112.503906 76.160156 L 76.769531 45.804688 Z M 110.011719 6.667969 " clip-rule="nonzero"/></clipPath><clipPath id="3a0ad47fe6"><path d="M 101.875 44.5 L 110.167969 51.542969 L 98.9375 64.765625 L 90.644531 57.722656 Z M 101.875 44.5 " clip-rule="nonzero"/></clipPath><clipPath id="8709b66869"><path d="M 101.875 44.5 L 110.167969 51.542969 L 99.003906 64.6875 L 90.714844 57.644531 Z M 101.875 44.5 " clip-rule="nonzero"/></clipPath><clipPath id="f492f48b7d"><path d="M 116 41 L 129 41 L 129 61 L 116 61 Z M 116 41 " clip-rule="nonzero"/></clipPath><clipPath id="86433937d5"><path d="M 110.011719 6.667969 L 145.75 37.019531 L 112.503906 76.160156 L 76.769531 45.804688 Z M 110.011719 6.667969 " clip-rule="nonzero"/></clipPath><clipPath id="ae6ea284e2"><path d="M 110.011719 6.667969 L 145.75 37.019531 L 112.503906 76.160156 L 76.769531 45.804688 Z M 110.011719 6.667969 " clip-rule="nonzero"/></clipPath><clipPath id="66b4a5aafa"><path d="M 110.011719 6.667969 L 145.75 37.019531 L 112.503906 76.160156 L 76.769531 45.804688 Z M 110.011719 6.667969 " clip-rule="nonzero"/></clipPath><clipPath id="384adc00d2"><path d="M 91 26 L 111 26 L 111 39 L 91 39 Z M 91 26 " clip-rule="nonzero"/></clipPath><clipPath id="bb8e8e5805"><path d="M 110.011719 6.667969 L 145.75 37.019531 L 112.503906 76.160156 L 76.769531 45.804688 Z M 110.011719 6.667969 " clip-rule="nonzero"/></clipPath><clipPath id="fd109515e2"><path d="M 110.011719 6.667969 L 145.75 37.019531 L 112.503906 76.160156 L 76.769531 45.804688 Z M 110.011719 6.667969 " clip-rule="nonzero"/></clipPath><clipPath id="4739ebfeb1"><path d="M 110.011719 6.667969 L 145.75 37.019531 L 112.503906 76.160156 L 76.769531 45.804688 Z M 110.011719 6.667969 " clip-rule="nonzero"/></clipPath><clipPath id="39888cb06b"><path d="M 107 27 L 124 27 L 124 47 L 107 47 Z M 107 27 " clip-rule="nonzero"/></clipPath><clipPath id="0c1017a921"><path d="M 110.011719 6.667969 L 145.75 37.019531 L 112.503906 76.160156 L 76.769531 45.804688 Z M 110.011719 6.667969 " clip-rule="nonzero"/></clipPath><clipPath id="a3acac0297"><path d="M 110.011719 6.667969 L 145.75 37.019531 L 112.503906 76.160156 L 76.769531 45.804688 Z M 110.011719 6.667969 " clip-rule="nonzero"/></clipPath><clipPath id="af9242a18f"><path d="M 110.011719 6.667969 L 145.75 37.019531 L 112.503906 76.160156 L 76.769531 45.804688 Z M 110.011719 6.667969 " clip-rule="nonzero"/></clipPath></defs><path fill="#b74d3e" d="M 213.496094 76.574219 L 213.496094 52.265625 C 213.496094 45.335938 209.261719 39.117188 202.824219 36.605469 L 121.628906 4.878906 C 117.722656 3.355469 113.390625 3.355469 109.484375 4.878906 L 28.289062 36.601562 C 21.851562 39.113281 17.617188 45.335938 17.617188 52.261719 L 17.617188 76.570312 C 17.617188 83.5 21.851562 89.71875 28.289062 92.230469 L 109.484375 123.953125 C 113.390625 125.480469 117.722656 125.480469 121.628906 123.953125 L 202.824219 92.230469 C 209.261719 89.722656 213.496094 83.503906 213.496094 76.574219 Z M 213.496094 76.574219 " fill-opacity="1" fill-rule="nonzero"/><g clip-path="url(#11cfeb142f)"><path fill="#5f969a" d="M 115.558594 127.46875 C 113.210938 127.46875 110.863281 127.035156 108.628906 126.160156 L 27.433594 94.4375 C 20.042969 91.546875 15.265625 84.535156 15.265625 76.574219 L 15.265625 52.265625 C 15.265625 44.304688 20.042969 37.292969 27.433594 34.40625 L 108.628906 2.683594 C 113.09375 0.941406 118.011719 0.941406 122.480469 2.683594 L 203.675781 34.40625 C 211.070312 37.289062 215.847656 44.304688 215.847656 52.265625 L 215.847656 76.574219 C 215.847656 84.535156 211.070312 91.546875 203.679688 94.4375 L 122.484375 126.160156 C 120.25 127.03125 117.902344 127.46875 115.558594 127.46875 Z M 115.558594 6.09375 C 113.789062 6.09375 112.019531 6.421875 110.335938 7.078125 L 29.136719 38.800781 C 23.566406 40.980469 19.96875 46.261719 19.96875 52.261719 L 19.96875 76.570312 C 19.96875 82.570312 23.566406 87.859375 29.136719 90.03125 L 110.332031 121.753906 C 113.699219 123.070312 117.410156 123.070312 120.777344 121.753906 L 201.972656 90.03125 C 207.542969 87.855469 211.140625 82.570312 211.140625 76.570312 L 211.140625 52.261719 C 211.140625 46.261719 207.539062 40.976562 201.972656 38.800781 L 120.777344 7.078125 C 119.09375 6.421875 117.324219 6.09375 115.558594 6.09375 Z M 115.558594 6.09375 " fill-opacity="1" fill-rule="nonzero"/></g><g clip-path="url(#0dd3d659e0)"><g clip-path="url(#534b11c6f0)"><g clip-path="url(#91d2fd920c)"><g clip-path="url(#c4cc51329c)"><path fill="#000000" d="M 116.308594 50.433594 C 116.261719 50.503906 116.214844 50.574219 116.167969 50.648438 C 115.960938 50.945312 115.75 51.257812 115.519531 51.558594 C 115.285156 51.855469 115.058594 52.164062 114.796875 52.449219 L 114.421875 52.878906 C 114.289062 53.019531 114.152344 53.152344 114.023438 53.289062 C 113.890625 53.421875 113.761719 53.554688 113.628906 53.683594 C 113.492188 53.804688 113.355469 53.925781 113.222656 54.042969 C 113.089844 54.160156 112.960938 54.28125 112.828125 54.386719 C 112.691406 54.492188 112.558594 54.59375 112.429688 54.691406 C 112.175781 54.894531 111.929688 55.078125 111.6875 55.222656 C 111.449219 55.375 111.234375 55.515625 111.042969 55.636719 C 110.839844 55.742188 110.664062 55.835938 110.519531 55.910156 C 110.230469 56.0625 110.066406 56.148438 110.066406 56.148438 C 110.066406 56.148438 110.210938 56.03125 110.464844 55.828125 C 110.589844 55.726562 110.742188 55.605469 110.917969 55.464844 C 111.082031 55.3125 111.261719 55.132812 111.460938 54.945312 C 111.664062 54.761719 111.863281 54.539062 112.070312 54.300781 C 112.171875 54.1875 112.277344 54.066406 112.386719 53.945312 C 112.492188 53.816406 112.589844 53.679688 112.695312 53.546875 C 112.796875 53.414062 112.902344 53.273438 113.007812 53.136719 C 113.109375 52.996094 113.203125 52.84375 113.300781 52.699219 C 113.398438 52.550781 113.5 52.402344 113.59375 52.25 L 113.863281 51.785156 C 114.050781 51.480469 114.203125 51.152344 114.363281 50.839844 C 114.519531 50.527344 114.65625 50.207031 114.789062 49.902344 C 114.910156 49.589844 115.039062 49.296875 115.132812 49.007812 C 115.238281 48.722656 115.328125 48.449219 115.402344 48.195312 C 115.558594 47.691406 115.664062 47.265625 115.726562 46.976562 C 115.757812 46.828125 115.777344 46.71875 115.789062 46.652344 C 115.796875 46.613281 115.820312 46.378906 115.839844 46.144531 C 112.964844 47.289062 109.957031 47.960938 107.570312 47.859375 C 106.507812 51.855469 105.132812 58.773438 104.410156 61.011719 C 107.160156 61.136719 113.671875 58.910156 116.683594 56.78125 C 116.523438 54.3125 116.398438 52.195312 116.308594 50.433594 " fill-opacity="1" fill-rule="nonzero"/></g></g></g></g><g clip-path="url(#d2de781700)"><g clip-path="url(#5b816cc950)"><g clip-path="url(#3e3a011074)"><g clip-path="url(#d438812887)"><path fill="#000000" d="M 106.117188 38.902344 C 105.84375 39.015625 105.472656 39.171875 105.035156 39.390625 C 104.796875 39.503906 104.542969 39.636719 104.277344 39.785156 C 104.007812 39.925781 103.738281 40.101562 103.449219 40.273438 C 103.171875 40.453125 102.878906 40.640625 102.59375 40.84375 C 102.3125 41.054688 102.015625 41.257812 101.746094 41.492188 L 101.328125 41.832031 C 101.191406 41.949219 101.066406 42.074219 100.933594 42.191406 C 100.804688 42.316406 100.671875 42.433594 100.546875 42.554688 C 100.429688 42.679688 100.3125 42.804688 100.195312 42.929688 C 100.078125 43.054688 99.960938 43.171875 99.851562 43.296875 C 99.75 43.421875 99.648438 43.546875 99.550781 43.667969 C 99.347656 43.910156 99.164062 44.140625 99.015625 44.371094 C 98.859375 44.597656 98.710938 44.804688 98.589844 44.992188 C 98.480469 45.1875 98.382812 45.359375 98.304688 45.5 C 98.140625 45.78125 98.050781 45.941406 98.050781 45.941406 C 98.050781 45.941406 98.109375 45.765625 98.210938 45.457031 C 98.265625 45.304688 98.328125 45.113281 98.398438 44.898438 C 98.484375 44.6875 98.59375 44.453125 98.703125 44.195312 C 98.808594 43.929688 98.949219 43.660156 99.105469 43.375 C 99.183594 43.230469 99.261719 43.082031 99.34375 42.933594 C 99.425781 42.785156 99.523438 42.640625 99.617188 42.488281 C 99.714844 42.335938 99.8125 42.183594 99.910156 42.027344 C 100.011719 41.875 100.125 41.730469 100.234375 41.578125 C 100.347656 41.425781 100.457031 41.269531 100.574219 41.117188 L 100.9375 40.675781 C 101.175781 40.375 101.445312 40.101562 101.699219 39.820312 C 101.960938 39.542969 102.230469 39.285156 102.492188 39.03125 C 102.761719 38.792969 103.015625 38.546875 103.277344 38.339844 C 103.332031 38.292969 103.382812 38.25 103.4375 38.207031 C 101.378906 38.445312 98.707031 38.726562 95.414062 39.046875 C 93.859375 42.441406 92.78125 48.976562 93.335938 51.605469 C 95.449219 50.523438 102.152344 48.011719 105.90625 46.316406 C 105.503906 44.222656 105.617188 41.574219 106.117188 38.902344 " fill-opacity="1" fill-rule="nonzero"/></g></g></g></g><g clip-path="url(#1070cae51b)"><g clip-path="url(#73d5304fdc)"><g clip-path="url(#423e7c75b3)"><g clip-path="url(#0f59bc81cb)"><g clip-path="url(#1b7e9f1881)"><g clip-path="url(#004cb65799)"><path fill="#000000" d="M 125.691406 41.242188 C 126.90625 45.074219 128.546875 48.222656 130.136719 51.265625 C 130.59375 52.144531 131.039062 52.992188 131.464844 53.84375 C 132.070312 52.097656 132.816406 50.59375 133.59375 49.023438 C 134.746094 46.695312 135.9375 44.285156 136.75 40.839844 C 138.128906 35 136.328125 29.605469 131.558594 25.035156 C 132.382812 26.933594 133.207031 29.332031 133.644531 31.8125 C 133.78125 32.535156 133.875 33.265625 133.949219 33.984375 C 133.988281 34.34375 134 34.703125 134.027344 35.054688 C 134.039062 35.40625 134.050781 35.757812 134.058594 36.097656 C 134.054688 36.441406 134.046875 36.777344 134.042969 37.109375 C 134.023438 37.4375 134.003906 37.757812 133.984375 38.070312 C 133.921875 38.695312 133.855469 39.285156 133.757812 39.820312 C 133.679688 40.359375 133.546875 40.84375 133.457031 41.273438 C 133.339844 41.699219 133.242188 42.070312 133.148438 42.371094 C 132.949219 42.96875 132.832031 43.3125 132.832031 43.3125 C 132.832031 43.3125 132.914062 42.960938 133.054688 42.347656 C 133.117188 42.039062 133.175781 41.664062 133.25 41.234375 C 133.296875 40.796875 133.378906 40.3125 133.402344 39.777344 C 133.445312 39.246094 133.453125 38.664062 133.453125 38.054688 C 133.441406 37.75 133.429688 37.4375 133.417969 37.117188 C 133.390625 36.796875 133.363281 36.472656 133.335938 36.140625 C 133.292969 35.8125 133.25 35.476562 133.207031 35.136719 C 133.144531 34.800781 133.097656 34.460938 133.027344 34.117188 C 132.886719 33.4375 132.730469 32.75 132.53125 32.074219 C 131.761719 29.359375 130.515625 26.816406 129.433594 25.023438 C 128.898438 24.125 128.402344 23.40625 128.050781 22.921875 C 127.992188 22.839844 121.847656 29.09375 125.691406 41.242188 " fill-opacity="1" fill-rule="nonzero"/></g></g></g></g></g></g><g clip-path="url(#cd81c65e9f)"><g clip-path="url(#7bf78598a0)"><g clip-path="url(#7d45ed2025)"><g clip-path="url(#259765b873)"><path fill="#000000" d="M 126.964844 22.179688 C 126.480469 21.949219 125.871094 21.675781 125.164062 21.398438 C 123.21875 20.621094 120.511719 19.800781 117.707031 19.484375 C 117.007812 19.394531 116.300781 19.351562 115.609375 19.324219 C 115.257812 19.308594 114.914062 19.316406 114.574219 19.3125 C 114.234375 19.324219 113.894531 19.335938 113.5625 19.34375 C 113.230469 19.371094 112.90625 19.398438 112.585938 19.421875 C 112.269531 19.464844 111.957031 19.503906 111.65625 19.542969 C 111.054688 19.640625 110.480469 19.738281 109.960938 19.871094 C 109.4375 19.980469 108.972656 20.136719 108.550781 20.253906 C 108.140625 20.398438 107.777344 20.515625 107.484375 20.628906 C 106.898438 20.867188 106.566406 21.003906 106.566406 21.003906 C 106.566406 21.003906 106.886719 20.832031 107.441406 20.539062 C 107.726562 20.394531 108.078125 20.242188 108.476562 20.054688 C 108.886719 19.898438 109.34375 19.6875 109.863281 19.523438 C 110.378906 19.34375 110.945312 19.179688 111.550781 19.019531 C 111.859375 18.949219 112.171875 18.878906 112.492188 18.804688 C 112.816406 18.746094 113.148438 18.683594 113.484375 18.625 C 113.828125 18.578125 114.171875 18.53125 114.523438 18.484375 C 114.875 18.457031 115.230469 18.414062 115.589844 18.390625 C 116.3125 18.347656 117.046875 18.320312 117.78125 18.339844 C 120.34375 18.371094 122.882812 18.808594 124.90625 19.328125 C 119.40625 14.855469 113.511719 13.75 107.703125 16.167969 C 104.433594 17.527344 102.25 19.09375 100.136719 20.609375 C 98.714844 21.628906 97.351562 22.605469 95.726562 23.488281 C 96.636719 23.769531 97.542969 24.070312 98.484375 24.378906 C 101.746094 25.453125 105.117188 26.566406 109.09375 27.144531 C 120.320312 28.773438 125.515625 24.226562 126.964844 22.179688 " fill-opacity="1" fill-rule="nonzero"/></g></g></g></g><g clip-path="url(#8d4b9ee6d9)"><g clip-path="url(#47d066199f)"><g clip-path="url(#398c77a208)"><g clip-path="url(#79d4848fd5)"><g clip-path="url(#3a0ad47fe6)"><g clip-path="url(#8709b66869)"><path fill="#000000" d="M 105.246094 54.355469 C 105.667969 52.484375 106.097656 50.589844 106.5 48.964844 L 98.964844 56.34375 L 105.199219 47.460938 C 103.597656 48.15625 101.675781 48.933594 99.773438 49.703125 C 98.566406 50.191406 97.394531 50.667969 96.371094 51.09375 C 95.199219 54.332031 94.847656 57.945312 94.863281 61.167969 C 98.148438 60.6875 101.488281 59.800781 104.359375 58.214844 C 104.632812 57.078125 104.933594 55.738281 105.246094 54.355469 " fill-opacity="1" fill-rule="nonzero"/></g></g></g></g></g></g><g clip-path="url(#f492f48b7d)"><g clip-path="url(#86433937d5)"><g clip-path="url(#ae6ea284e2)"><g clip-path="url(#66b4a5aafa)"><path fill="#000000" d="M 128.433594 51.304688 C 127.414062 49.339844 126.386719 47.3125 125.464844 45.070312 C 125.003906 46.15625 124.378906 47.511719 123.6875 48.832031 C 123.316406 49.546875 122.925781 50.25 122.542969 50.898438 C 122.355469 51.222656 122.164062 51.53125 121.980469 51.824219 C 121.800781 52.117188 121.628906 52.390625 121.460938 52.640625 C 121.132812 53.140625 120.847656 53.550781 120.640625 53.832031 C 120.4375 54.117188 120.324219 54.277344 120.324219 54.277344 C 120.324219 54.277344 120.40625 54.097656 120.554688 53.78125 C 120.707031 53.46875 120.914062 53.019531 121.144531 52.46875 C 121.265625 52.199219 121.382812 51.902344 121.507812 51.585938 C 121.632812 51.269531 121.761719 50.9375 121.886719 50.585938 C 122.140625 49.894531 122.398438 49.148438 122.628906 48.394531 C 123.097656 46.894531 123.480469 45.375 123.730469 44.230469 C 123.855469 43.660156 123.945312 43.183594 124.007812 42.851562 C 124.042969 42.65625 124.152344 42.113281 124.238281 41.707031 C 124.238281 41.707031 124.238281 41.703125 124.238281 41.703125 C 124.160156 41.46875 124.09375 41.238281 124.027344 41.007812 C 122.34375 42.800781 119.722656 44.464844 116.890625 45.699219 C 116.933594 49.421875 117.542969 58.214844 117.726562 60.871094 C 120.464844 59.914062 126.613281 54.480469 128.433594 51.304688 " fill-opacity="1" fill-rule="nonzero"/></g></g></g></g><g clip-path="url(#384adc00d2)"><g clip-path="url(#bb8e8e5805)"><g clip-path="url(#fd109515e2)"><g clip-path="url(#4739ebfeb1)"><path fill="#000000" d="M 110.226562 28.820312 C 110.0625 28.800781 109.898438 28.785156 109.730469 28.765625 C 109.132812 28.980469 108.304688 29.28125 108.109375 29.347656 C 107.792969 29.460938 107.335938 29.628906 106.792969 29.847656 C 105.707031 30.277344 104.269531 30.902344 102.863281 31.609375 C 102.15625 31.957031 101.464844 32.328125 100.820312 32.691406 C 100.496094 32.871094 100.1875 33.054688 99.898438 33.230469 C 99.605469 33.402344 99.328125 33.570312 99.082031 33.730469 C 98.578125 34.046875 98.167969 34.324219 97.882812 34.523438 C 97.59375 34.71875 97.429688 34.832031 97.429688 34.832031 C 97.429688 34.832031 97.570312 34.691406 97.820312 34.449219 C 98.0625 34.199219 98.421875 33.851562 98.863281 33.449219 C 99.082031 33.242188 99.324219 33.027344 99.585938 32.800781 C 99.84375 32.574219 100.117188 32.332031 100.410156 32.097656 C 100.984375 31.613281 101.613281 31.113281 102.257812 30.632812 C 103.542969 29.664062 104.886719 28.765625 105.921875 28.121094 C 103.640625 27.625 101.550781 26.984375 99.53125 26.332031 C 96.707031 28.40625 92.078125 35.703125 91.5625 38.648438 C 94.171875 38.402344 102.714844 37.605469 106.492188 37.042969 C 107.289062 33.851562 108.601562 30.800781 110.226562 28.820312 " fill-opacity="1" fill-rule="nonzero"/></g></g></g></g><g clip-path="url(#39888cb06b)"><g clip-path="url(#0c1017a921)"><g clip-path="url(#a3acac0297)"><g clip-path="url(#af9242a18f)"><path fill="#000000" d="M 123.210938 39.601562 C 123.324219 39.46875 123.429688 39.320312 123.539062 39.175781 C 122.644531 35.371094 123.222656 31.371094 123.648438 28.757812 L 113.613281 39.09375 L 122.128906 27.464844 C 119.609375 28.488281 116.324219 29.160156 112.1875 28.96875 C 111.953125 29.199219 111.730469 29.433594 111.523438 29.675781 C 108.40625 33.34375 106.429688 41.644531 107.488281 46.269531 C 112.222656 46.566406 120.09375 43.269531 123.210938 39.601562 " fill-opacity="1" fill-rule="nonzero"/></g></g></g></g><g fill="#000000" fill-opacity="1"><g transform="translate(99.34258, 109.817318)"><g><path d="M 2.875 -6.234375 C 3.425781 -6.234375 3.859375 -6.101562 4.171875 -5.84375 C 4.484375 -5.582031 4.640625 -5.21875 4.640625 -4.75 C 4.640625 -4.425781 4.554688 -4.113281 4.390625 -3.8125 C 4.222656 -3.507812 4.019531 -3.234375 3.78125 -2.984375 C 3.539062 -2.734375 3.222656 -2.429688 2.828125 -2.078125 C 2.503906 -1.773438 2.265625 -1.546875 2.109375 -1.390625 C 1.953125 -1.242188 1.8125 -1.082031 1.6875 -0.90625 L 4.078125 -0.90625 C 4.285156 -0.90625 4.441406 -0.921875 4.546875 -0.953125 C 4.660156 -0.992188 4.734375 -1.054688 4.765625 -1.140625 C 4.804688 -1.222656 4.835938 -1.347656 4.859375 -1.515625 L 5.0625 -1.515625 C 5.0625 -0.785156 5.078125 -0.257812 5.109375 0.0625 C 4.941406 0.0195312 4.359375 0 3.359375 0 L 0.59375 0 L 0.59375 -0.203125 C 0.726562 -0.335938 0.957031 -0.5625 1.28125 -0.875 C 1.726562 -1.289062 2.097656 -1.664062 2.390625 -2 C 2.691406 -2.332031 2.953125 -2.707031 3.171875 -3.125 C 3.390625 -3.550781 3.5 -4.003906 3.5 -4.484375 C 3.5 -5.335938 3.109375 -5.765625 2.328125 -5.765625 C 1.679688 -5.765625 1.15625 -5.394531 0.75 -4.65625 L 0.546875 -4.765625 C 0.753906 -5.179688 1.046875 -5.53125 1.421875 -5.8125 C 1.796875 -6.09375 2.28125 -6.234375 2.875 -6.234375 Z M 2.875 -6.234375 "/></g></g></g><g fill="#000000" fill-opacity="1"><g transform="translate(106.668842, 109.817318)"><g><path d="M 3.59375 -6.234375 C 4.144531 -6.234375 4.632812 -6.101562 5.0625 -5.84375 C 5.5 -5.59375 5.835938 -5.226562 6.078125 -4.75 C 6.316406 -4.28125 6.4375 -3.742188 6.4375 -3.140625 C 6.4375 -2.503906 6.3125 -1.9375 6.0625 -1.4375 C 5.8125 -0.9375 5.457031 -0.539062 5 -0.25 C 4.550781 0.03125 4.039062 0.171875 3.46875 0.171875 C 2.925781 0.171875 2.4375 0.046875 2 -0.203125 C 1.570312 -0.460938 1.234375 -0.828125 0.984375 -1.296875 C 0.734375 -1.773438 0.609375 -2.320312 0.609375 -2.9375 C 0.609375 -3.5625 0.734375 -4.125 0.984375 -4.625 C 1.234375 -5.125 1.582031 -5.515625 2.03125 -5.796875 C 2.476562 -6.085938 3 -6.234375 3.59375 -6.234375 Z M 3.484375 -6.015625 C 3.148438 -6.015625 2.847656 -5.894531 2.578125 -5.65625 C 2.316406 -5.414062 2.113281 -5.066406 1.96875 -4.609375 C 1.820312 -4.148438 1.75 -3.609375 1.75 -2.984375 C 1.75 -1.984375 1.914062 -1.242188 2.25 -0.765625 C 2.59375 -0.285156 3.03125 -0.046875 3.5625 -0.046875 C 3.90625 -0.046875 4.207031 -0.164062 4.46875 -0.40625 C 4.726562 -0.65625 4.929688 -1.007812 5.078125 -1.46875 C 5.222656 -1.925781 5.296875 -2.46875 5.296875 -3.09375 C 5.296875 -4.082031 5.125 -4.816406 4.78125 -5.296875 C 4.445312 -5.773438 4.015625 -6.015625 3.484375 -6.015625 Z M 3.484375 -6.015625 "/></g></g></g><g fill="#000000" fill-opacity="1"><g transform="translate(115.420109, 109.817318)"><g><path d="M 3.59375 -6.234375 C 4.144531 -6.234375 4.632812 -6.101562 5.0625 -5.84375 C 5.5 -5.59375 5.835938 -5.226562 6.078125 -4.75 C 6.316406 -4.28125 6.4375 -3.742188 6.4375 -3.140625 C 6.4375 -2.503906 6.3125 -1.9375 6.0625 -1.4375 C 5.8125 -0.9375 5.457031 -0.539062 5 -0.25 C 4.550781 0.03125 4.039062 0.171875 3.46875 0.171875 C 2.925781 0.171875 2.4375 0.046875 2 -0.203125 C 1.570312 -0.460938 1.234375 -0.828125 0.984375 -1.296875 C 0.734375 -1.773438 0.609375 -2.320312 0.609375 -2.9375 C 0.609375 -3.5625 0.734375 -4.125 0.984375 -4.625 C 1.234375 -5.125 1.582031 -5.515625 2.03125 -5.796875 C 2.476562 -6.085938 3 -6.234375 3.59375 -6.234375 Z M 3.484375 -6.015625 C 3.148438 -6.015625 2.847656 -5.894531 2.578125 -5.65625 C 2.316406 -5.414062 2.113281 -5.066406 1.96875 -4.609375 C 1.820312 -4.148438 1.75 -3.609375 1.75 -2.984375 C 1.75 -1.984375 1.914062 -1.242188 2.25 -0.765625 C 2.59375 -0.285156 3.03125 -0.046875 3.5625 -0.046875 C 3.90625 -0.046875 4.207031 -0.164062 4.46875 -0.40625 C 4.726562 -0.65625 4.929688 -1.007812 5.078125 -1.46875 C 5.222656 -1.925781 5.296875 -2.46875 5.296875 -3.09375 C 5.296875 -4.082031 5.125 -4.816406 4.78125 -5.296875 C 4.445312 -5.773438 4.015625 -6.015625 3.484375 -6.015625 Z M 3.484375 -6.015625 "/></g></g></g><g fill="#000000" fill-opacity="1"><g transform="translate(124.171377, 109.817318)"><g><path d="M 3.03125 -6.234375 C 3.78125 -6.234375 4.367188 -5.957031 4.796875 -5.40625 C 5.222656 -4.863281 5.4375 -4.101562 5.4375 -3.125 C 5.4375 -2.125 5.222656 -1.273438 4.796875 -0.578125 C 4.378906 0.117188 3.863281 0.65625 3.25 1.03125 C 2.644531 1.40625 2.039062 1.644531 1.4375 1.75 L 1.390625 1.515625 C 2.109375 1.304688 2.710938 0.960938 3.203125 0.484375 C 3.703125 0.015625 4.03125 -0.738281 4.1875 -1.78125 C 4.007812 -1.46875 3.765625 -1.242188 3.453125 -1.109375 C 3.148438 -0.972656 2.851562 -0.90625 2.5625 -0.90625 C 2.175781 -0.90625 1.820312 -1.003906 1.5 -1.203125 C 1.1875 -1.410156 0.929688 -1.707031 0.734375 -2.09375 C 0.535156 -2.488281 0.4375 -2.945312 0.4375 -3.46875 C 0.4375 -4.039062 0.550781 -4.535156 0.78125 -4.953125 C 1.007812 -5.367188 1.320312 -5.6875 1.71875 -5.90625 C 2.113281 -6.125 2.550781 -6.234375 3.03125 -6.234375 Z M 2.84375 -1.25 C 3.113281 -1.25 3.378906 -1.320312 3.640625 -1.46875 C 3.910156 -1.625 4.109375 -1.863281 4.234375 -2.1875 C 4.265625 -2.4375 4.28125 -2.738281 4.28125 -3.09375 C 4.28125 -4.144531 4.144531 -4.890625 3.875 -5.328125 C 3.613281 -5.773438 3.289062 -6 2.90625 -6 C 2.519531 -6 2.203125 -5.796875 1.953125 -5.390625 C 1.703125 -4.992188 1.578125 -4.382812 1.578125 -3.5625 C 1.578125 -2.757812 1.691406 -2.171875 1.921875 -1.796875 C 2.160156 -1.429688 2.46875 -1.25 2.84375 -1.25 Z M 2.84375 -1.25 "/></g></g></g><g fill="#000000" fill-opacity="1"><g transform="translate(40.685395, 87.378082)"><g><path d="M 12.03125 -1.15625 C 11.445312 -0.695312 10.691406 -0.335938 9.765625 -0.078125 C 8.835938 0.171875 7.695312 0.296875 6.34375 0.296875 C 5 0.296875 3.566406 0.171875 2.046875 -0.078125 L 2.046875 -15.734375 C 3.578125 -15.972656 4.90625 -16.09375 6.03125 -16.09375 C 7.164062 -16.09375 8.09375 -15.984375 8.8125 -15.765625 C 9.539062 -15.554688 10.132812 -15.269531 10.59375 -14.90625 C 11.5 -14.195312 11.953125 -13.28125 11.953125 -12.15625 C 11.953125 -11.039062 11.546875 -10.117188 10.734375 -9.390625 C 11.691406 -9.085938 12.4375 -8.515625 12.96875 -7.671875 C 13.457031 -6.921875 13.703125 -6.085938 13.703125 -5.171875 C 13.703125 -4.253906 13.566406 -3.472656 13.296875 -2.828125 C 13.035156 -2.179688 12.613281 -1.625 12.03125 -1.15625 Z M 5.1875 -9.828125 C 5.519531 -9.765625 5.9375 -9.734375 6.4375 -9.734375 C 6.9375 -9.734375 7.347656 -9.796875 7.671875 -9.921875 C 7.992188 -10.054688 8.238281 -10.226562 8.40625 -10.4375 C 8.695312 -10.757812 8.84375 -11.207031 8.84375 -11.78125 C 8.84375 -12.988281 8.128906 -13.59375 6.703125 -13.59375 C 6.097656 -13.59375 5.59375 -13.570312 5.1875 -13.53125 Z M 6.953125 -7.28125 C 6.285156 -7.28125 5.695312 -7.238281 5.1875 -7.15625 L 5.1875 -2.484375 C 5.738281 -2.335938 6.320312 -2.265625 6.9375 -2.265625 C 7.550781 -2.265625 8.085938 -2.335938 8.546875 -2.484375 C 9.003906 -2.628906 9.394531 -2.832031 9.71875 -3.09375 C 10.351562 -3.613281 10.671875 -4.273438 10.671875 -5.078125 C 10.671875 -6.546875 9.429688 -7.28125 6.953125 -7.28125 Z M 6.953125 -7.28125 "/></g></g></g><g fill="#000000" fill-opacity="1"><g transform="translate(58.378096, 87.378082)"><g><path d="M 9.984375 -2.84375 C 10.484375 -2.84375 10.828125 -2.894531 11.015625 -3 L 11.0625 -2.984375 L 10.9375 0 L 2.046875 0 L 2.046875 -15.875 C 2.253906 -15.863281 2.488281 -15.851562 2.75 -15.84375 L 3.59375 -15.828125 C 4.144531 -15.804688 4.742188 -15.796875 5.390625 -15.796875 C 7.203125 -15.796875 9 -15.828125 10.78125 -15.890625 C 10.6875 -15.191406 10.640625 -14.265625 10.640625 -13.109375 C 10.640625 -12.972656 10.648438 -12.875 10.671875 -12.8125 L 10.640625 -12.78125 C 10.234375 -12.894531 9.648438 -12.953125 8.890625 -12.953125 L 5.140625 -12.953125 L 5.140625 -9.9375 L 7.953125 -9.9375 C 8.828125 -9.9375 9.351562 -9.957031 9.53125 -10 L 9.5625 -7.0625 C 9.1875 -7.101562 8.695312 -7.125 8.09375 -7.125 L 5.140625 -7.125 L 5.140625 -2.84375 Z M 9.984375 -2.84375 "/></g></g></g><g fill="#000000" fill-opacity="1"><g transform="translate(74.040261, 87.378082)"><g><path d="M 9.984375 -2.84375 C 10.484375 -2.84375 10.828125 -2.894531 11.015625 -3 L 11.0625 -2.984375 L 10.9375 0 L 2.046875 0 L 2.046875 -15.875 C 2.253906 -15.863281 2.488281 -15.851562 2.75 -15.84375 L 3.59375 -15.828125 C 4.144531 -15.804688 4.742188 -15.796875 5.390625 -15.796875 C 7.203125 -15.796875 9 -15.828125 10.78125 -15.890625 C 10.6875 -15.191406 10.640625 -14.265625 10.640625 -13.109375 C 10.640625 -12.972656 10.648438 -12.875 10.671875 -12.8125 L 10.640625 -12.78125 C 10.234375 -12.894531 9.648438 -12.953125 8.890625 -12.953125 L 5.140625 -12.953125 L 5.140625 -9.9375 L 7.953125 -9.9375 C 8.828125 -9.9375 9.351562 -9.957031 9.53125 -10 L 9.5625 -7.0625 C 9.1875 -7.101562 8.695312 -7.125 8.09375 -7.125 L 5.140625 -7.125 L 5.140625 -2.84375 Z M 9.984375 -2.84375 "/></g></g></g><g fill="#000000" fill-opacity="1"><g transform="translate(89.702425, 87.378082)"><g><path d="M 7.15625 -6.140625 C 6.914062 -6.128906 6.660156 -6.125 6.390625 -6.125 C 6.117188 -6.125 5.71875 -6.140625 5.1875 -6.171875 L 5.1875 0 L 2.046875 0 L 2.046875 -15.875 C 3.148438 -16.019531 4.507812 -16.09375 6.125 -16.09375 C 8.332031 -16.09375 9.972656 -15.6875 11.046875 -14.875 C 12.128906 -14.0625 12.671875 -12.8125 12.671875 -11.125 C 12.671875 -9.800781 12.175781 -8.675781 11.1875 -7.75 C 10.863281 -7.445312 10.492188 -7.1875 10.078125 -6.96875 L 12.5 -1.859375 C 12.96875 -0.796875 13.332031 -0.164062 13.59375 0.03125 L 13.53125 0.078125 C 12.757812 -0.046875 11.550781 -0.0390625 9.90625 0.09375 Z M 6.359375 -13.296875 C 5.953125 -13.296875 5.5625 -13.273438 5.1875 -13.234375 L 5.1875 -8.703125 C 5.570312 -8.640625 6.023438 -8.609375 6.546875 -8.609375 C 7.078125 -8.609375 7.519531 -8.65625 7.875 -8.75 C 8.226562 -8.84375 8.535156 -8.984375 8.796875 -9.171875 C 9.359375 -9.585938 9.640625 -10.210938 9.640625 -11.046875 C 9.640625 -11.890625 9.347656 -12.484375 8.765625 -12.828125 C 8.222656 -13.140625 7.421875 -13.296875 6.359375 -13.296875 Z M 6.359375 -13.296875 "/></g></g></g><g fill="#000000" fill-opacity="1"><g transform="translate(107.347629, 87.378082)"><g><path d="M 9.125 -16.09375 C 10.601562 -16.09375 11.863281 -15.835938 12.90625 -15.328125 L 12.90625 -11.6875 L 12.890625 -11.671875 C 12.441406 -12.347656 11.503906 -12.796875 10.078125 -13.015625 C 9.660156 -13.085938 9.128906 -13.125 8.484375 -13.125 C 7.847656 -13.125 7.21875 -13.003906 6.59375 -12.765625 C 5.976562 -12.523438 5.472656 -12.179688 5.078125 -11.734375 C 4.316406 -10.867188 3.9375 -9.640625 3.9375 -8.046875 C 3.9375 -6.179688 4.421875 -4.796875 5.390625 -3.890625 C 6.203125 -3.128906 7.269531 -2.75 8.59375 -2.75 C 10.101562 -2.75 11.328125 -3.066406 12.265625 -3.703125 C 12.597656 -3.929688 12.882812 -4.21875 13.125 -4.5625 L 13.15625 -4.53125 L 13.15625 -1.21875 C 11.945312 -0.207031 10.316406 0.296875 8.265625 0.296875 C 5.847656 0.296875 3.957031 -0.46875 2.59375 -2 C 1.28125 -3.46875 0.625 -5.410156 0.625 -7.828125 C 0.625 -10.390625 1.34375 -12.40625 2.78125 -13.875 C 4.238281 -15.351562 6.351562 -16.09375 9.125 -16.09375 Z M 9.125 -16.09375 "/></g></g></g><g fill="#000000" fill-opacity="1"><g transform="translate(124.933463, 87.378082)"><g><path d="M 7.15625 -6.140625 C 6.914062 -6.128906 6.660156 -6.125 6.390625 -6.125 C 6.117188 -6.125 5.71875 -6.140625 5.1875 -6.171875 L 5.1875 0 L 2.046875 0 L 2.046875 -15.875 C 3.148438 -16.019531 4.507812 -16.09375 6.125 -16.09375 C 8.332031 -16.09375 9.972656 -15.6875 11.046875 -14.875 C 12.128906 -14.0625 12.671875 -12.8125 12.671875 -11.125 C 12.671875 -9.800781 12.175781 -8.675781 11.1875 -7.75 C 10.863281 -7.445312 10.492188 -7.1875 10.078125 -6.96875 L 12.5 -1.859375 C 12.96875 -0.796875 13.332031 -0.164062 13.59375 0.03125 L 13.53125 0.078125 C 12.757812 -0.046875 11.550781 -0.0390625 9.90625 0.09375 Z M 6.359375 -13.296875 C 5.953125 -13.296875 5.5625 -13.273438 5.1875 -13.234375 L 5.1875 -8.703125 C 5.570312 -8.640625 6.023438 -8.609375 6.546875 -8.609375 C 7.078125 -8.609375 7.519531 -8.65625 7.875 -8.75 C 8.226562 -8.84375 8.535156 -8.984375 8.796875 -9.171875 C 9.359375 -9.585938 9.640625 -10.210938 9.640625 -11.046875 C 9.640625 -11.890625 9.347656 -12.484375 8.765625 -12.828125 C 8.222656 -13.140625 7.421875 -13.296875 6.359375 -13.296875 Z M 6.359375 -13.296875 "/></g></g></g><g fill="#000000" fill-opacity="1"><g transform="translate(142.57867, 87.378082)"><g><path d="M 3.203125 0.09375 C 2.515625 0.03125 1.71875 0 0.8125 0 L -0.125 0 L 5.03125 -14.484375 C 5.257812 -15.128906 5.375 -15.503906 5.375 -15.609375 C 5.375 -15.722656 5.375 -15.789062 5.375 -15.8125 L 5.375 -15.828125 C 5.894531 -15.804688 6.441406 -15.796875 7.015625 -15.796875 C 7.492188 -15.796875 8.066406 -15.804688 8.734375 -15.828125 L 8.75 -15.796875 C 8.726562 -15.765625 8.71875 -15.722656 8.71875 -15.671875 C 8.71875 -15.515625 8.835938 -15.113281 9.078125 -14.46875 L 14.34375 0.03125 C 14.1875 0.03125 14.003906 0.03125 13.796875 0.03125 C 13.796875 0.03125 13.585938 0.0195312 13.171875 0 C 12.972656 0 12.796875 0 12.640625 0 L 10.796875 0 L 9.6875 -3.421875 L 4.3125 -3.421875 Z M 8.75 -6.265625 L 6.96875 -11.796875 L 5.21875 -6.265625 Z M 8.75 -6.265625 "/></g></g></g><g fill="#000000" fill-opacity="1"><g transform="translate(160.271375, 87.378082)"><g><path d="M 10.375 -6.828125 C 9.988281 -6.867188 9.492188 -6.890625 8.890625 -6.890625 L 5.296875 -6.890625 L 5.296875 0 L 2.046875 0 L 2.046875 -15.875 C 2.253906 -15.863281 2.5 -15.851562 2.78125 -15.84375 L 3.65625 -15.828125 C 4.257812 -15.804688 4.882812 -15.796875 5.53125 -15.796875 C 7.476562 -15.796875 9.34375 -15.828125 11.125 -15.890625 C 11.03125 -15.191406 10.984375 -14.265625 10.984375 -13.109375 C 10.984375 -12.972656 10.992188 -12.875 11.015625 -12.8125 L 10.984375 -12.78125 C 10.566406 -12.894531 9.984375 -12.953125 9.234375 -12.953125 L 5.296875 -12.953125 L 5.296875 -9.6875 L 8.765625 -9.6875 C 9.640625 -9.6875 10.160156 -9.710938 10.328125 -9.765625 Z M 10.375 -6.828125 "/></g></g></g><g fill="#000000" fill-opacity="1"><g transform="translate(175.886045, 87.378082)"><g><path d="M 7.75 0.078125 C 7.363281 0.0234375 6.382812 0 4.8125 0 L 4.4375 0 L 4.4375 -13.140625 L 2.078125 -13.140625 C 1.378906 -13.140625 0.96875 -13.101562 0.84375 -13.03125 C 0.71875 -12.957031 0.617188 -12.894531 0.546875 -12.84375 L 0.515625 -12.859375 L 0.515625 -15.890625 L 0.546875 -15.9375 C 0.804688 -15.84375 1.507812 -15.796875 2.65625 -15.796875 L 10.109375 -15.796875 C 10.804688 -15.796875 11.21875 -15.832031 11.34375 -15.90625 C 11.46875 -15.976562 11.566406 -16.039062 11.640625 -16.09375 L 11.671875 -16.078125 L 11.671875 -13.046875 L 11.640625 -13 C 11.378906 -13.09375 10.675781 -13.140625 9.53125 -13.140625 L 7.75 -13.140625 Z M 7.75 0.078125 "/></g></g></g><g fill="#000000" fill-opacity="1"><g transform="translate(114.676144, 53.033298)"><g/></g></g></svg>